<svg width="16" height="16" viewBox="0 0 16 16" fill="none" xmlns="http://www.w3.org/2000/svg">
  <defs>
    <linearGradient id="bgGradient" x1="0%" y1="0%" x2="100%" y2="100%">
      <stop offset="0%" style="stop-color:#1e293b;stop-opacity:1" />
      <stop offset="100%" style="stop-color:#0f172a;stop-opacity:1" />
    </linearGradient>
  </defs>
  
  <rect width="16" height="16" rx="4" fill="url(#bgGradient)"/>
  
  <!-- Ordinateur portable simplifié -->
  <g transform="translate(2, 3)">
    <!-- Écran -->
    <rect x="1" y="0" width="10" height="7" rx="1" fill="white" stroke="#64748b" stroke-width="0.5"/>
    
    <!-- Contenu écran -->
    <rect x="1.5" y="0.5" width="9" height="6" rx="0.5" fill="#0f172a"/>
    
    <!-- Header macOS -->
    <rect x="1.5" y="0.5" width="9" height="1" rx="0.5" fill="#1e293b"/>
    
    <!-- Boutons macOS -->
    <circle cx="2.2" cy="1" r="0.3" fill="#ff5f56"/>
    <circle cx="3" cy="1" r="0.3" fill="#ffbd2e"/>
    <circle cx="3.8" cy="1" r="0.3" fill="#27ca3f"/>
    
    <!-- Code -->
    <rect x="2" y="2.5" width="4" height="0.4" rx="0.2" fill="#3b82f6"/>
    <rect x="2" y="3.2" width="3" height="0.4" rx="0.2" fill="#8b5cf6"/>
    <rect x="2" y="3.9" width="5" height="0.4" rx="0.2" fill="#10b981"/>
    
    <!-- Clavier -->
    <rect x="0" y="7" width="12" height="3" rx="0.5" fill="#e2e8f0" stroke="#64748b" stroke-width="0.3"/>
    
    <!-- Touches -->
    <rect x="1" y="7.8" width="1" height="0.6" rx="0.1" fill="white"/>
    <rect x="2.2" y="7.8" width="1" height="0.6" rx="0.1" fill="white"/>
    <rect x="3.4" y="7.8" width="1" height="0.6" rx="0.1" fill="white"/>
    <rect x="4.6" y="7.8" width="1" height="0.6" rx="0.1" fill="white"/>
    <rect x="5.8" y="7.8" width="1" height="0.6" rx="0.1" fill="white"/>
    <rect x="7" y="7.8" width="1" height="0.6" rx="0.1" fill="white"/>
    <rect x="8.2" y="7.8" width="1" height="0.6" rx="0.1" fill="white"/>
    <rect x="9.4" y="7.8" width="1" height="0.6" rx="0.1" fill="white"/>
    
    <!-- Trackpad -->
    <rect x="4" y="9.5" width="4" height="1" rx="0.5" fill="white" stroke="#cbd5e1" stroke-width="0.2"/>
  </g>
  
  <!-- Accent -->
  <circle cx="13" cy="3" r="1" fill="#3b82f6" opacity="0.3"/>
</svg>
