<svg width="32" height="32" viewBox="0 0 32 32" fill="none" xmlns="http://www.w3.org/2000/svg">
  <!-- Fond avec dégradé moderne -->
  <defs>
    <linearGradient id="bgGradient" x1="0%" y1="0%" x2="100%" y2="100%">
      <stop offset="0%" style="stop-color:#1e293b;stop-opacity:1" />
      <stop offset="100%" style="stop-color:#0f172a;stop-opacity:1" />
    </linearGradient>
    <linearGradient id="screenGradient" x1="0%" y1="0%" x2="100%" y2="100%">
      <stop offset="0%" style="stop-color:#ffffff;stop-opacity:1" />
      <stop offset="100%" style="stop-color:#f8fafc;stop-opacity:1" />
    </linearGradient>
    <linearGradient id="keyboardGradient" x1="0%" y1="0%" x2="100%" y2="100%">
      <stop offset="0%" style="stop-color:#e2e8f0;stop-opacity:1" />
      <stop offset="100%" style="stop-color:#cbd5e1;stop-opacity:1" />
    </linearGradient>
  </defs>
  
  <!-- Fond -->
  <rect width="32" height="32" rx="8" fill="url(#bgGradient)"/>
  
  <!-- Ordinateur portable moderne -->
  <g transform="translate(4, 6)">
    <!-- Écran principal -->
    <rect x="2" y="0" width="20" height="14" rx="2" fill="url(#screenGradient)" stroke="#64748b" stroke-width="0.5"/>
    
    <!-- Contenu de l'écran -->
    <rect x="3" y="1" width="18" height="12" rx="1" fill="#0f172a"/>
    
    <!-- Barre de titre macOS -->
    <rect x="3" y="1" width="18" height="2" rx="1" fill="#1e293b"/>
    
    <!-- Boutons macOS -->
    <circle cx="4.5" cy="2" r="0.6" fill="#ff5f56"/>
    <circle cx="6" cy="2" r="0.6" fill="#ffbd2e"/>
    <circle cx="7.5" cy="2" r="0.6" fill="#27ca3f"/>
    
    <!-- Code dans l'écran -->
    <g transform="translate(4, 4)">
      <!-- Ligne 1 -->
      <rect x="0" y="0" width="8" height="0.8" rx="0.4" fill="#3b82f6"/>
      <rect x="9" y="0" width="6" height="0.8" rx="0.4" fill="#ffffff"/>
      
      <!-- Ligne 2 -->
      <rect x="0" y="1.5" width="6" height="0.8" rx="0.4" fill="#8b5cf6"/>
      <rect x="7" y="1.5" width="8" height="0.8" rx="0.4" fill="#ffffff"/>
      
      <!-- Ligne 3 -->
      <rect x="0" y="3" width="10" height="0.8" rx="0.4" fill="#10b981"/>
      <rect x="11" y="3" width="4" height="0.8" rx="0.4" fill="#ffffff"/>
      
      <!-- Ligne 4 -->
      <rect x="0" y="4.5" width="5" height="0.8" rx="0.4" fill="#f59e0b"/>
      <rect x="6" y="4.5" width="9" height="0.8" rx="0.4" fill="#ffffff"/>
    </g>
    
    <!-- Clavier -->
    <rect x="0" y="14" width="24" height="6" rx="1" fill="url(#keyboardGradient)" stroke="#64748b" stroke-width="0.5"/>
    
    <!-- Touches du clavier -->
    <g transform="translate(2, 15.5)">
      <!-- Rangée 1 -->
      <rect x="0" y="0" width="1.5" height="1" rx="0.2" fill="#ffffff"/>
      <rect x="2" y="0" width="1.5" height="1" rx="0.2" fill="#ffffff"/>
      <rect x="4" y="0" width="1.5" height="1" rx="0.2" fill="#ffffff"/>
      <rect x="6" y="0" width="1.5" height="1" rx="0.2" fill="#ffffff"/>
      <rect x="8" y="0" width="1.5" height="1" rx="0.2" fill="#ffffff"/>
      <rect x="10" y="0" width="1.5" height="1" rx="0.2" fill="#ffffff"/>
      <rect x="12" y="0" width="1.5" height="1" rx="0.2" fill="#ffffff"/>
      <rect x="14" y="0" width="1.5" height="1" rx="0.2" fill="#ffffff"/>
      <rect x="16" y="0" width="1.5" height="1" rx="0.2" fill="#ffffff"/>
      <rect x="18" y="0" width="1.5" height="1" rx="0.2" fill="#ffffff"/>
      
      <!-- Rangée 2 -->
      <rect x="1" y="1.5" width="1.5" height="1" rx="0.2" fill="#ffffff"/>
      <rect x="3" y="1.5" width="1.5" height="1" rx="0.2" fill="#ffffff"/>
      <rect x="5" y="1.5" width="1.5" height="1" rx="0.2" fill="#ffffff"/>
      <rect x="7" y="1.5" width="1.5" height="1" rx="0.2" fill="#ffffff"/>
      <rect x="9" y="1.5" width="1.5" height="1" rx="0.2" fill="#ffffff"/>
      <rect x="11" y="1.5" width="1.5" height="1" rx="0.2" fill="#ffffff"/>
      <rect x="13" y="1.5" width="1.5" height="1" rx="0.2" fill="#ffffff"/>
      <rect x="15" y="1.5" width="1.5" height="1" rx="0.2" fill="#ffffff"/>
      <rect x="17" y="1.5" width="1.5" height="1" rx="0.2" fill="#ffffff"/>
    </g>
    
    <!-- Trackpad -->
    <rect x="8" y="20" width="8" height="2" rx="1" fill="#ffffff" stroke="#cbd5e1" stroke-width="0.3"/>
  </g>
  
  <!-- Accent moderne -->
  <circle cx="26" cy="6" r="2" fill="#3b82f6" opacity="0.3"/>
</svg>
